<mxfile host="app.diagrams.net" modified="2021-12-19T15:49:35.119Z" agent="5.0 (Windows NT 10.0; Win64; x64) AppleWebKit/537.36 (KHTML, like Gecko) Chrome/96.0.4664.110 Safari/537.36" etag="NzileM6DbaG0iJYenZH4" version="14.6.1" type="github">
  <diagram id="aILLvQEVS9CXQoUYzo5x" name="第 1 页">
    <mxGraphModel dx="966" dy="454" grid="1" gridSize="10" guides="1" tooltips="1" connect="1" arrows="1" fold="1" page="1" pageScale="1" pageWidth="1600" pageHeight="1200" math="0" shadow="0">
      <root>
        <mxCell id="0" />
        <mxCell id="1" parent="0" />
        <mxCell id="Kry_4IqpaawhLTl4Cb5q-1" value="用户" style="shape=umlActor;verticalLabelPosition=bottom;verticalAlign=top;html=1;outlineConnect=0;" vertex="1" parent="1">
          <mxGeometry x="90" y="120" width="30" height="60" as="geometry" />
        </mxCell>
        <mxCell id="Kry_4IqpaawhLTl4Cb5q-2" value="" style="rounded=0;whiteSpace=wrap;html=1;" vertex="1" parent="1">
          <mxGeometry x="280" y="120" width="420" height="350" as="geometry" />
        </mxCell>
        <mxCell id="Kry_4IqpaawhLTl4Cb5q-3" value="" style="endArrow=classic;html=1;exitX=1;exitY=0.3333333333333333;exitDx=0;exitDy=0;exitPerimeter=0;entryX=0;entryY=0.5;entryDx=0;entryDy=0;" edge="1" parent="1" source="Kry_4IqpaawhLTl4Cb5q-1" target="Kry_4IqpaawhLTl4Cb5q-4">
          <mxGeometry width="50" height="50" relative="1" as="geometry">
            <mxPoint x="370" y="270" as="sourcePoint" />
            <mxPoint x="420" y="220" as="targetPoint" />
          </mxGeometry>
        </mxCell>
        <mxCell id="Kry_4IqpaawhLTl4Cb5q-4" value="查看用户信息" style="ellipse;whiteSpace=wrap;html=1;" vertex="1" parent="1">
          <mxGeometry x="335" y="150" width="75" height="40" as="geometry" />
        </mxCell>
        <mxCell id="Kry_4IqpaawhLTl4Cb5q-5" value="个人信息模块" style="text;html=1;align=center;verticalAlign=middle;resizable=0;points=[];autosize=1;strokeColor=none;fontSize=21;" vertex="1" parent="1">
          <mxGeometry x="415" y="485" width="140" height="30" as="geometry" />
        </mxCell>
        <mxCell id="Kry_4IqpaawhLTl4Cb5q-6" value="修改个人信息" style="ellipse;whiteSpace=wrap;html=1;" vertex="1" parent="1">
          <mxGeometry x="335" y="220" width="75" height="50" as="geometry" />
        </mxCell>
        <mxCell id="Kry_4IqpaawhLTl4Cb5q-7" value="" style="endArrow=classic;html=1;entryX=0;entryY=0.5;entryDx=0;entryDy=0;exitX=1;exitY=0.3333333333333333;exitDx=0;exitDy=0;exitPerimeter=0;" edge="1" parent="1" source="Kry_4IqpaawhLTl4Cb5q-1" target="Kry_4IqpaawhLTl4Cb5q-6">
          <mxGeometry width="50" height="50" relative="1" as="geometry">
            <mxPoint x="120" y="210" as="sourcePoint" />
            <mxPoint x="170" y="210" as="targetPoint" />
          </mxGeometry>
        </mxCell>
        <mxCell id="Kry_4IqpaawhLTl4Cb5q-8" value="维修员" style="shape=umlActor;verticalLabelPosition=bottom;verticalAlign=top;html=1;outlineConnect=0;" vertex="1" parent="1">
          <mxGeometry x="80" y="240" width="30" height="60" as="geometry" />
        </mxCell>
        <mxCell id="Kry_4IqpaawhLTl4Cb5q-12" value="" style="endArrow=classic;html=1;entryX=0.042;entryY=0.802;entryDx=0;entryDy=0;entryPerimeter=0;exitX=1;exitY=0.3333333333333333;exitDx=0;exitDy=0;exitPerimeter=0;" edge="1" parent="1" source="Kry_4IqpaawhLTl4Cb5q-8" target="Kry_4IqpaawhLTl4Cb5q-4">
          <mxGeometry width="50" height="50" relative="1" as="geometry">
            <mxPoint x="150" y="320" as="sourcePoint" />
            <mxPoint x="200" y="270" as="targetPoint" />
          </mxGeometry>
        </mxCell>
        <mxCell id="Kry_4IqpaawhLTl4Cb5q-13" value="" style="endArrow=classic;html=1;exitX=1;exitY=0.3333333333333333;exitDx=0;exitDy=0;exitPerimeter=0;entryX=0.042;entryY=0.713;entryDx=0;entryDy=0;entryPerimeter=0;" edge="1" parent="1" source="Kry_4IqpaawhLTl4Cb5q-8" target="Kry_4IqpaawhLTl4Cb5q-6">
          <mxGeometry width="50" height="50" relative="1" as="geometry">
            <mxPoint x="160" y="330" as="sourcePoint" />
            <mxPoint x="210" y="280" as="targetPoint" />
          </mxGeometry>
        </mxCell>
        <mxCell id="Kry_4IqpaawhLTl4Cb5q-16" value="用户" style="shape=umlActor;verticalLabelPosition=bottom;verticalAlign=top;html=1;outlineConnect=0;" vertex="1" parent="1">
          <mxGeometry x="80" y="800" width="30" height="60" as="geometry" />
        </mxCell>
        <mxCell id="Kry_4IqpaawhLTl4Cb5q-18" value="" style="rounded=0;whiteSpace=wrap;html=1;" vertex="1" parent="1">
          <mxGeometry x="280" y="620" width="430" height="610" as="geometry" />
        </mxCell>
        <mxCell id="Kry_4IqpaawhLTl4Cb5q-19" value="申请报修" style="ellipse;whiteSpace=wrap;html=1;" vertex="1" parent="1">
          <mxGeometry x="320" y="650" width="90" height="60" as="geometry" />
        </mxCell>
        <mxCell id="Kry_4IqpaawhLTl4Cb5q-20" value="&lt;span style=&quot;font-size: 23px&quot;&gt;报修管理模块&lt;/span&gt;" style="text;html=1;align=center;verticalAlign=middle;resizable=0;points=[];autosize=1;strokeColor=none;" vertex="1" parent="1">
          <mxGeometry x="410" y="1250" width="150" height="20" as="geometry" />
        </mxCell>
        <mxCell id="Kry_4IqpaawhLTl4Cb5q-25" value="填写报修信息" style="ellipse;whiteSpace=wrap;html=1;" vertex="1" parent="1">
          <mxGeometry x="570" y="650" width="90" height="60" as="geometry" />
        </mxCell>
        <mxCell id="Kry_4IqpaawhLTl4Cb5q-29" value="&lt;font style=&quot;font-size: 11px&quot;&gt;&amp;lt;&amp;lt;include&amp;gt;&amp;gt;&lt;/font&gt;" style="html=1;verticalAlign=bottom;labelBackgroundColor=none;endArrow=open;endFill=0;dashed=1;fontSize=21;" edge="1" parent="1">
          <mxGeometry width="160" relative="1" as="geometry">
            <mxPoint x="410" y="679.41" as="sourcePoint" />
            <mxPoint x="570" y="679.41" as="targetPoint" />
          </mxGeometry>
        </mxCell>
        <mxCell id="Kry_4IqpaawhLTl4Cb5q-31" value="跟踪报修进度" style="ellipse;whiteSpace=wrap;html=1;" vertex="1" parent="1">
          <mxGeometry x="320" y="750" width="90" height="60" as="geometry" />
        </mxCell>
        <mxCell id="Kry_4IqpaawhLTl4Cb5q-32" value="" style="endArrow=classic;html=1;fontSize=21;entryX=0;entryY=0.5;entryDx=0;entryDy=0;exitX=1;exitY=0.3333333333333333;exitDx=0;exitDy=0;exitPerimeter=0;" edge="1" parent="1" source="Kry_4IqpaawhLTl4Cb5q-16" target="Kry_4IqpaawhLTl4Cb5q-31">
          <mxGeometry width="50" height="50" relative="1" as="geometry">
            <mxPoint y="930" as="sourcePoint" />
            <mxPoint x="50" y="880" as="targetPoint" />
          </mxGeometry>
        </mxCell>
        <mxCell id="Kry_4IqpaawhLTl4Cb5q-37" value="反馈维修结果" style="ellipse;whiteSpace=wrap;html=1;" vertex="1" parent="1">
          <mxGeometry x="520" y="850" width="90" height="60" as="geometry" />
        </mxCell>
        <mxCell id="Kry_4IqpaawhLTl4Cb5q-41" value="" style="endArrow=classic;html=1;fontSize=21;entryX=0;entryY=0.5;entryDx=0;entryDy=0;" edge="1" parent="1" target="Kry_4IqpaawhLTl4Cb5q-19">
          <mxGeometry width="50" height="50" relative="1" as="geometry">
            <mxPoint x="110" y="820" as="sourcePoint" />
            <mxPoint x="280" y="670" as="targetPoint" />
          </mxGeometry>
        </mxCell>
        <mxCell id="Kry_4IqpaawhLTl4Cb5q-43" value="查看报修记录" style="ellipse;whiteSpace=wrap;html=1;" vertex="1" parent="1">
          <mxGeometry x="335" y="1020" width="90" height="60" as="geometry" />
        </mxCell>
        <mxCell id="Kry_4IqpaawhLTl4Cb5q-44" value="" style="endArrow=classic;html=1;fontSize=21;entryX=0;entryY=0.5;entryDx=0;entryDy=0;" edge="1" parent="1" target="Kry_4IqpaawhLTl4Cb5q-43">
          <mxGeometry width="50" height="50" relative="1" as="geometry">
            <mxPoint x="110" y="820" as="sourcePoint" />
            <mxPoint x="80" y="1000" as="targetPoint" />
          </mxGeometry>
        </mxCell>
        <mxCell id="Kry_4IqpaawhLTl4Cb5q-46" value="查看完成的记录" style="ellipse;whiteSpace=wrap;html=1;" vertex="1" parent="1">
          <mxGeometry x="490" y="990" width="90" height="60" as="geometry" />
        </mxCell>
        <mxCell id="Kry_4IqpaawhLTl4Cb5q-47" value="查看正在进行中的记录" style="ellipse;whiteSpace=wrap;html=1;" vertex="1" parent="1">
          <mxGeometry x="490" y="1070" width="90" height="60" as="geometry" />
        </mxCell>
        <mxCell id="Kry_4IqpaawhLTl4Cb5q-48" value="&lt;font style=&quot;font-size: 11px&quot;&gt;&amp;lt;&amp;lt;include&amp;gt;&amp;gt;&lt;/font&gt;" style="html=1;verticalAlign=bottom;labelBackgroundColor=none;endArrow=open;endFill=0;dashed=1;fontSize=21;entryX=0;entryY=0.5;entryDx=0;entryDy=0;exitX=0.976;exitY=0.379;exitDx=0;exitDy=0;exitPerimeter=0;" edge="1" parent="1" source="Kry_4IqpaawhLTl4Cb5q-43" target="Kry_4IqpaawhLTl4Cb5q-46">
          <mxGeometry x="-0.1516" y="2" width="160" relative="1" as="geometry">
            <mxPoint x="421" y="1040" as="sourcePoint" />
            <mxPoint x="460" y="1130" as="targetPoint" />
            <mxPoint as="offset" />
          </mxGeometry>
        </mxCell>
        <mxCell id="Kry_4IqpaawhLTl4Cb5q-49" value="&lt;font style=&quot;font-size: 11px&quot;&gt;&amp;lt;&amp;lt;include&amp;gt;&amp;gt;&lt;/font&gt;" style="html=1;verticalAlign=bottom;labelBackgroundColor=none;endArrow=open;endFill=0;dashed=1;fontSize=21;exitX=1;exitY=0.5;exitDx=0;exitDy=0;entryX=0;entryY=0.5;entryDx=0;entryDy=0;" edge="1" parent="1" source="Kry_4IqpaawhLTl4Cb5q-43" target="Kry_4IqpaawhLTl4Cb5q-47">
          <mxGeometry x="0.0335" y="-30" width="160" relative="1" as="geometry">
            <mxPoint x="390" y="1120" as="sourcePoint" />
            <mxPoint x="550" y="1120" as="targetPoint" />
            <mxPoint as="offset" />
          </mxGeometry>
        </mxCell>
        <mxCell id="Kry_4IqpaawhLTl4Cb5q-50" value="" style="rounded=0;whiteSpace=wrap;html=1;fontSize=21;" vertex="1" parent="1">
          <mxGeometry x="290" y="1390" width="420" height="430" as="geometry" />
        </mxCell>
        <mxCell id="Kry_4IqpaawhLTl4Cb5q-51" value="&lt;font style=&quot;font-size: 23px&quot;&gt;维修管理模块&lt;/font&gt;" style="text;html=1;align=center;verticalAlign=middle;resizable=0;points=[];autosize=1;strokeColor=none;fontSize=21;" vertex="1" parent="1">
          <mxGeometry x="430" y="1845" width="150" height="30" as="geometry" />
        </mxCell>
        <mxCell id="Kry_4IqpaawhLTl4Cb5q-52" value="维修员" style="shape=umlActor;verticalLabelPosition=bottom;verticalAlign=top;html=1;outlineConnect=0;fontSize=21;" vertex="1" parent="1">
          <mxGeometry x="110" y="1550" width="30" height="60" as="geometry" />
        </mxCell>
        <mxCell id="Kry_4IqpaawhLTl4Cb5q-58" value="查看反馈" style="ellipse;whiteSpace=wrap;html=1;" vertex="1" parent="1">
          <mxGeometry x="325" y="850" width="90" height="60" as="geometry" />
        </mxCell>
        <mxCell id="Kry_4IqpaawhLTl4Cb5q-59" value="" style="endArrow=classic;html=1;fontSize=21;entryX=0;entryY=0.5;entryDx=0;entryDy=0;" edge="1" parent="1" target="Kry_4IqpaawhLTl4Cb5q-58">
          <mxGeometry width="50" height="50" relative="1" as="geometry">
            <mxPoint x="110" y="820" as="sourcePoint" />
            <mxPoint x="110" y="1000" as="targetPoint" />
          </mxGeometry>
        </mxCell>
        <mxCell id="Kry_4IqpaawhLTl4Cb5q-60" value="主管" style="shape=umlActor;verticalLabelPosition=bottom;verticalAlign=top;html=1;outlineConnect=0;fontSize=21;" vertex="1" parent="1">
          <mxGeometry x="770" y="1420" width="30" height="60" as="geometry" />
        </mxCell>
        <mxCell id="Kry_4IqpaawhLTl4Cb5q-61" value="管理员" style="shape=umlActor;verticalLabelPosition=bottom;verticalAlign=top;html=1;outlineConnect=0;fontSize=21;" vertex="1" parent="1">
          <mxGeometry x="770" y="1620" width="30" height="60" as="geometry" />
        </mxCell>
        <mxCell id="Kry_4IqpaawhLTl4Cb5q-62" value="&lt;font style=&quot;font-size: 11px&quot;&gt;&amp;lt;&amp;lt;include&amp;gt;&amp;gt;&lt;/font&gt;" style="html=1;verticalAlign=bottom;labelBackgroundColor=none;endArrow=open;endFill=0;dashed=1;fontSize=21;entryX=0;entryY=0.5;entryDx=0;entryDy=0;exitX=1;exitY=0.5;exitDx=0;exitDy=0;" edge="1" parent="1" source="Kry_4IqpaawhLTl4Cb5q-58" target="Kry_4IqpaawhLTl4Cb5q-37">
          <mxGeometry width="160" relative="1" as="geometry">
            <mxPoint x="360" y="960" as="sourcePoint" />
            <mxPoint x="520" y="960" as="targetPoint" />
          </mxGeometry>
        </mxCell>
      </root>
    </mxGraphModel>
  </diagram>
</mxfile>
